<?xml version="1.0" standalone="no"?>
<!DOCTYPE svg PUBLIC "-//W3C//DTD SVG 20010904//EN"
 "http://www.w3.org/TR/2001/REC-SVG-20010904/DTD/svg10.dtd">
<svg version="1.0" xmlns="http://www.w3.org/2000/svg"
 width="450.000000pt" height="450.000000pt" viewBox="0 0 450.000000 450.000000"
 preserveAspectRatio="xMidYMid meet">
<metadata>
Created by potrace 1.14, written by Peter Selinger 2001-2017
</metadata>
<g transform="translate(0.000000,450.000000) scale(0.100000,-0.100000)"
fill="#000000" stroke="none">
<path d="M2172 3665 c-153 -62 -295 -175 -409 -323 -31 -40 -59 -70 -62 -67
-3 4 1 10 8 14 10 7 10 10 1 16 -9 6 -9 10 1 16 8 5 9 9 4 9 -7 0 -9 15 -7 35
2 19 2 35 -1 35 -18 0 -55 -24 -50 -33 3 -5 8 -5 13 2 5 9 10 8 20 -4 7 -9 8
-15 2 -15 -7 0 -8 -10 -2 -30 5 -16 5 -30 0 -30 -4 0 -6 -9 -3 -19 3 -12 -22
-73 -61 -153 -56 -114 -124 -307 -140 -394 -5 -28 -16 -45 -16 -26 0 7 -8 12
-17 12 -14 0 -15 2 -5 9 10 6 8 10 -9 14 -36 10 -36 -2 -1 -29 24 -19 30 -29
23 -42 -4 -9 -6 -23 -4 -29 3 -7 0 -13 -6 -13 -6 0 -11 -5 -11 -11 0 -5 5 -7
12 -3 7 4 8 3 4 -4 -17 -27 -98 -3 -89 26 3 6 0 12 -7 12 -6 0 -8 5 -3 13 4 6
8 18 9 25 2 8 10 22 20 33 27 30 8 35 -22 6 -14 -14 -23 -31 -19 -37 4 -6 2
-17 -5 -25 -9 -10 -7 -16 7 -24 14 -8 15 -10 3 -11 -13 0 -13 -1 0 -10 8 -5
11 -10 5 -10 -5 0 1 -7 13 -16 12 -8 27 -12 32 -9 6 3 10 0 10 -7 0 -8 3 -9 8
-3 4 6 14 11 22 12 12 2 14 -10 12 -69 -5 -90 13 -212 44 -307 13 -40 24 -76
24 -80 0 -3 -21 -15 -48 -25 -26 -10 -56 -27 -68 -38 -11 -10 -24 -15 -27 -11
-4 3 -7 1 -7 -5 0 -7 -5 -12 -10 -12 -6 0 -5 8 2 20 7 11 15 15 16 10 5 -13
32 7 32 22 0 6 -7 5 -15 -2 -8 -7 -15 -9 -15 -4 -1 16 -40 -41 -40 -58 0 -9
-9 -32 -19 -50 -17 -27 -58 -166 -75 -252 -3 -11 -18 -79 -35 -151 -32 -137
-36 -160 -46 -240 -11 -80 -20 -71 -17 15 2 55 -1 80 -9 80 -6 0 -9 -7 -5 -15
4 -13 2 -13 -14 -5 -24 13 -30 13 -30 0 0 -5 9 -10 19 -10 11 0 23 -4 26 -10
3 -5 3 -10 -2 -10 -4 0 -8 -26 -8 -57 0 -47 4 -59 18 -65 10 -4 16 -12 13 -17
-10 -16 15 -113 39 -158 l24 -43 -165 0 c-184 0 -212 -7 -234 -60 -7 -18 -10
-46 -6 -69 l6 -39 -55 0 c-32 1 -61 -4 -68 -11 -21 -21 15 -37 79 -35 44 1 62
-2 71 -15 10 -12 12 -13 8 -1 -4 12 8 15 64 17 39 2 73 -2 76 -7 3 -6 12 -10
18 -10 8 0 8 3 -1 9 -8 4 22 8 70 8 47 -1 86 -5 90 -11 5 -8 8 -8 8 0 0 14
108 15 134 2 13 -7 16 -7 12 1 -4 6 0 11 9 11 10 0 13 -5 9 -12 -5 -7 -3 -8 7
-2 21 12 59 13 59 0 0 -8 2 -8 8 0 4 7 64 10 165 10 138 0 157 -2 152 -15 -5
-14 -4 -14 7 0 15 18 88 23 88 6 0 -8 3 -8 8 -2 4 6 50 11 105 11 53 0 92 -3
85 -8 -9 -5 -10 -8 -1 -8 6 0 15 4 18 10 10 16 108 8 123 -10 10 -13 11 -13 7
0 -7 22 95 24 111 2 9 -12 13 -12 19 -2 5 9 4 11 -3 6 -7 -4 -12 -3 -12 2 0 5
18 9 40 9 24 0 37 -4 33 -10 -4 -6 -1 -7 8 -2 20 13 78 18 59 5 -8 -5 -10 -10
-4 -10 6 0 14 3 18 8 12 12 326 10 326 -3 0 -6 3 -6 8 1 8 13 120 13 141 -1 9
-5 12 -4 8 2 -4 7 21 10 73 10 44 -1 74 -5 67 -9 -9 -6 -9 -8 0 -8 6 0 14 4
17 9 7 11 137 9 155 -3 9 -6 12 -5 8 0 -3 6 9 11 29 11 19 1 34 -4 34 -10 0
-8 3 -7 9 1 10 17 42 12 59 -8 11 -13 11 -13 7 1 -4 11 1 15 20 15 19 0 24 -4
20 -15 -4 -13 -2 -12 8 1 14 18 57 21 57 3 0 -6 3 -6 8 1 4 7 47 11 117 11 87
-1 113 -4 123 -16 11 -14 11 -14 6 1 -5 14 -1 16 19 12 14 -2 29 0 32 6 4 6
12 7 18 3 7 -4 5 4 -4 17 -14 22 -23 24 -77 23 -57 -1 -61 0 -52 17 24 45 1
117 -45 138 -17 8 -90 12 -215 12 l-189 0 27 58 c22 46 27 72 27 137 0 84 -10
175 -25 235 -9 34 -59 250 -65 280 -10 52 -47 182 -59 212 -9 19 -12 38 -9 42
4 3 2 6 -3 6 -5 0 -32 17 -60 38 -27 20 -73 48 -101 61 l-51 24 19 56 c44 126
60 212 54 280 -17 188 -51 357 -103 511 -33 95 -108 267 -127 290 -22 26 -48
83 -34 75 9 -6 11 -2 7 13 -4 15 -1 20 11 20 9 -1 21 0 26 2 24 6 46 -1 39
-12 -5 -8 -2 -9 10 -5 12 5 15 3 9 -6 -11 -18 -13 -38 -2 -31 5 3 9 1 9 -5 0
-5 -5 -13 -11 -17 -6 -3 -9 -14 -6 -24 3 -12 0 -17 -8 -14 -7 3 -15 -2 -18
-10 -7 -19 -3 -20 24 -5 11 5 17 14 14 20 -4 5 -1 9 6 9 7 0 9 3 6 6 -3 4 -2
15 3 25 7 12 7 20 0 24 -6 4 -8 11 -4 16 11 18 -39 57 -69 53 -32 -3 -59 -22
-51 -35 3 -5 -1 -9 -9 -9 -8 0 -27 17 -43 38 -50 66 -130 138 -203 183 -38 24
-75 53 -81 64 -17 30 -54 54 -93 59 -24 3 -60 -6 -115 -29z"/>
<path d="M3535 3463 c-70 -13 -184 -71 -220 -112 -58 -66 -83 -107 -105 -171
-33 -96 -28 -214 12 -297 10 -20 7 -83 -7 -153 -8 -39 -25 -133 -25 -137 0 -1
11 -10 24 -18 22 -15 28 -14 87 10 76 30 79 31 72 4 -4 -16 -2 -20 8 -17 8 3
13 14 11 26 -2 15 6 26 28 37 28 14 41 15 101 4 49 -9 69 -17 69 -27 0 -15 27
-41 43 -42 5 0 5 6 2 13 -4 6 1 3 9 -7 9 -11 16 -14 16 -7 0 7 3 10 8 7 10 -6
37 15 44 36 9 22 -21 17 -34 -5 -12 -22 -32 -22 -54 1 -17 16 -18 16 -10 -3 6
-16 5 -18 -5 -7 -20 19 -1 30 58 36 95 8 224 91 283 180 154 234 45 551 -217
633 -46 14 -157 23 -198 16z m165 -857 c0 -2 -8 -10 -17 -17 -16 -13 -17 -12
-4 4 13 16 21 21 21 13z"/>
<path d="M809 3377 c-31 -26 -35 -37 -17 -48 10 -7 8 -9 -7 -10 -11 0 -15 -3
-8 -5 7 -3 9 -12 6 -20 -7 -18 24 -67 37 -59 6 4 10 1 10 -5 0 -17 53 0 72 24
9 11 15 22 13 25 -3 2 0 12 6 22 7 15 6 21 -6 25 -8 3 -15 10 -15 16 0 5 5 6
11 2 8 -5 8 -1 0 14 -22 42 -66 50 -102 19z m54 -1 c-4 -5 1 -7 10 -3 12 4 14
2 10 -10 -5 -12 -3 -14 7 -8 9 5 11 4 6 -4 -4 -6 -3 -17 3 -24 6 -8 6 -18 1
-27 -13 -20 -12 -33 1 -25 6 4 5 -2 -2 -14 -10 -15 -20 -19 -38 -14 -19 5 -22
3 -16 -8 7 -11 6 -12 -7 -2 -8 7 -18 10 -22 6 -4 -4 -4 0 -1 9 4 9 1 19 -6 24
-8 5 -10 3 -4 -6 5 -8 4 -11 -3 -6 -6 3 -8 16 -5 29 2 12 5 30 5 40 -1 9 4 17
9 17 6 0 7 5 4 10 -3 6 1 10 10 10 9 0 14 4 11 8 -2 4 4 8 14 8 10 0 16 -5 13
-10z"/>
<path d="M1120 3391 c-8 -6 -18 -7 -22 -5 -4 3 -8 1 -8 -5 0 -5 5 -13 10 -16
6 -3 10 -1 10 5 0 6 4 9 9 6 5 -4 12 0 14 6 4 9 6 10 6 1 1 -6 -4 -15 -9 -18
-7 -4 -7 -13 0 -26 8 -14 7 -19 -2 -19 -9 0 -9 -3 2 -10 12 -8 12 -10 1 -10
-11 0 -11 -3 -1 -15 7 -8 8 -15 3 -15 -6 0 -8 -12 -5 -27 3 -16 7 -22 10 -15
2 6 9 9 14 6 7 -5 8 -2 2 7 -4 8 -7 47 -6 86 3 73 0 81 -28 64z"/>
<path d="M1381 3387 c-13 -6 -29 -27 -37 -44 -12 -30 -11 -33 4 -33 15 0 15
-2 2 -10 -13 -8 -13 -13 0 -37 16 -28 51 -43 83 -35 19 5 64 82 47 82 -5 0
-10 -5 -10 -11 0 -5 -5 -7 -12 -3 -6 4 -8 3 -5 -3 4 -6 -4 -21 -16 -35 l-22
-24 -24 22 c-18 17 -25 34 -26 69 -1 33 2 44 12 41 7 -3 19 2 28 10 8 9 15 11
15 5 0 -6 7 -11 15 -11 15 0 19 -10 16 -42 -1 -10 3 -18 9 -18 15 0 26 33 12
38 -7 2 -10 7 -7 12 14 22 -52 44 -84 27z m3 -146 c-5 -5 -33 30 -34 43 0 4 9
-2 19 -15 11 -13 17 -26 15 -28z"/>
<path d="M3070 3381 c0 -12 -2 -13 -9 -3 -12 20 -34 -11 -34 -51 0 -59 3 -68
15 -61 8 5 9 2 5 -9 -5 -12 1 -19 21 -24 15 -4 34 -6 42 -4 23 4 52 40 46 56
-3 8 -1 17 5 21 6 3 3 12 -8 21 -10 8 -12 11 -4 7 11 -5 13 -3 8 10 -4 10 -7
20 -7 22 0 2 -7 4 -16 4 -8 0 -12 5 -9 10 3 6 3 11 -2 11 -42 7 -53 5 -53 -10z
m37 2 c-4 -3 2 -12 12 -20 12 -8 18 -22 16 -33 -2 -11 0 -20 5 -20 5 0 3 -12
-5 -27 -8 -15 -12 -30 -9 -35 3 -4 -2 -5 -10 -2 -10 4 -16 1 -16 -7 0 -12 -2
-12 -9 0 -5 8 -14 10 -22 6 -8 -5 -11 -5 -7 -1 3 4 0 19 -7 33 -8 15 -12 30
-9 35 3 4 -1 8 -8 8 -10 0 -10 2 1 9 8 5 11 16 8 26 -4 9 -3 14 3 10 6 -3 20
1 32 9 23 16 37 21 25 9z"/>
<path d="M853 3024 c1 -23 5 -40 10 -37 4 2 7 0 7 -6 0 -5 -6 -11 -12 -14 -7
-2 -10 -8 -6 -12 13 -13 30 7 25 31 -2 14 1 24 7 24 7 0 8 3 1 8 -6 4 -10 16
-9 28 1 11 -5 21 -12 21 -8 0 -12 -14 -11 -43z"/>
<path d="M1113 3060 c-13 -5 -23 -15 -23 -22 0 -9 3 -9 12 0 22 22 29 12 28
-35 -3 -81 0 -103 11 -103 6 0 9 7 6 15 -4 8 -2 17 2 19 5 3 5 25 1 48 -5 27
-4 45 2 49 7 4 6 9 -1 13 -6 4 -9 12 -6 17 7 11 -3 11 -32 -1z"/>
<path d="M1360 3042 c-23 -28 -24 -109 -2 -105 7 2 9 -4 5 -15 -3 -9 -3 -14 2
-10 4 4 15 0 23 -9 10 -10 17 -12 20 -5 2 6 10 8 19 5 10 -4 14 -2 9 5 -3 6
-2 13 4 17 5 3 10 1 10 -5 0 -6 5 -8 10 -5 6 4 8 11 5 16 -4 5 -2 9 3 9 18 0
10 89 -10 107 -30 27 -75 25 -98 -5z m25 8 c-8 -13 1 -13 27 1 16 9 19 8 13
-2 -6 -8 -4 -11 7 -7 20 8 41 -25 25 -41 -6 -6 -7 -11 -1 -11 5 0 10 -9 10
-20 0 -10 -2 -17 -5 -15 -2 3 -10 -4 -17 -14 -20 -28 -55 -34 -61 -10 -3 10
-13 19 -22 20 -10 0 -11 2 -4 6 8 3 10 11 5 21 -5 9 -8 22 -7 27 1 14 25 55
31 55 3 0 2 -4 -1 -10z"/>
<path d="M3083 3063 c-7 -3 -13 -12 -13 -21 0 -13 2 -14 9 -3 6 10 10 10 16 1
4 -6 4 -14 1 -17 -3 -3 -1 -12 5 -19 7 -9 7 -19 -1 -33 -9 -18 -8 -21 12 -20
13 0 17 3 11 6 -9 3 -10 10 -3 23 7 13 7 21 -1 26 -8 4 -7 9 2 15 11 7 11 9 1
9 -7 0 -16 8 -20 18 -4 11 -13 17 -19 15z"/>
<path d="M3110 3054 c0 -8 5 -12 10 -9 6 4 8 11 5 16 -9 14 -15 11 -15 -7z"/>
<path d="M820 3045 c0 -8 2 -15 4 -15 2 0 6 7 10 15 3 8 1 15 -4 15 -6 0 -10
-7 -10 -15z"/>
<path d="M860 2940 c-13 -8 -12 -10 3 -10 9 0 17 5 17 10 0 12 -1 12 -20 0z"/>
<path d="M3103 2932 c-8 -5 -9 -13 -3 -22 6 -10 13 -11 19 -5 13 13 -1 36 -16
27z"/>
<path d="M856 2911 c-4 -5 1 -8 9 -7 21 3 31 16 12 16 -9 0 -18 -4 -21 -9z"/>
<path d="M802 2718 c-25 -28 -29 -48 -7 -48 18 0 20 20 3 21 -7 0 -3 4 10 9
12 5 22 14 22 20 0 5 5 10 11 10 5 0 7 -5 3 -12 -4 -6 -3 -8 4 -5 14 9 38 -1
40 -16 1 -7 3 -25 5 -42 1 -16 7 -33 12 -37 6 -5 4 -8 -5 -8 -9 0 -21 -5 -28
-12 -12 -12 -52 -19 -49 -9 1 3 -4 16 -11 29 -7 12 -9 22 -5 22 4 0 2 5 -4 11
-19 19 -34 1 -21 -26 6 -13 16 -22 21 -18 6 4 8 0 4 -10 -11 -28 69 -35 96 -8
12 12 18 93 6 85 -5 -3 -9 0 -9 5 0 6 6 11 12 11 23 0 -27 39 -57 46 -24 4
-35 0 -53 -18z"/>
<path d="M1112 2729 c-13 -5 -20 -13 -17 -19 8 -13 11 -13 29 5 13 14 15 13
13 -5 -1 -11 -5 -20 -10 -20 -5 0 -4 -7 3 -15 10 -12 10 -15 -1 -15 -11 0 -11
-2 1 -10 11 -7 11 -10 2 -10 -9 0 -10 -5 -2 -19 7 -14 6 -21 -3 -24 -9 -4 -9
-6 1 -6 7 -1 10 -5 7 -11 -3 -5 -2 -10 4 -10 5 0 10 37 10 85 0 47 -3 85 -7
84 -4 0 -17 -4 -30 -10z"/>
<path d="M3045 2720 c-27 -29 -28 -93 -3 -125 13 -17 27 -25 39 -22 10 3 20 0
23 -7 2 -6 5 -3 5 6 1 11 6 15 15 12 9 -3 20 6 29 25 20 39 1 42 -28 4 -20
-25 -24 -25 -52 -13 -27 12 -30 18 -28 54 2 27 10 46 25 58 25 20 45 24 34 6
-5 -8 -2 -9 10 -5 9 4 14 3 11 -2 -3 -5 -1 -13 5 -16 6 -4 8 -15 5 -26 -5 -15
-1 -19 15 -19 12 0 20 3 18 8 -3 4 -10 22 -17 40 -7 17 -18 33 -24 33 -7 1
-24 3 -39 4 -16 2 -33 -3 -43 -15z m30 -130 c3 -6 -1 -7 -9 -4 -18 7 -21 14
-7 14 6 0 13 -4 16 -10z"/>
<path d="M810 2400 c-6 -4 -17 -24 -25 -45 -11 -34 -11 -44 3 -72 8 -17 19
-30 24 -27 4 3 8 1 8 -5 0 -11 49 -9 69 3 6 4 16 16 22 28 8 15 8 19 0 14 -6
-4 -11 -2 -11 3 0 6 4 11 9 11 4 0 7 10 6 23 -1 12 -3 29 -4 38 -2 27 -72 47
-101 29z m15 -10 c-8 -13 8 -13 21 -1 5 6 18 2 34 -10 14 -12 19 -18 13 -14
-9 4 -11 1 -7 -9 3 -9 11 -13 18 -9 8 5 8 3 0 -8 -6 -8 -10 -24 -9 -36 1 -13
-3 -19 -8 -16 -6 4 -8 0 -4 -10 4 -12 2 -14 -10 -10 -10 4 -14 2 -10 -4 11
-17 -33 -7 -51 12 -13 13 -13 16 -2 11 8 -4 6 0 -5 9 -15 13 -17 18 -6 22 11
5 11 7 0 15 -11 7 -11 11 -1 15 6 2 10 9 6 14 -3 5 0 9 5 9 6 0 10 3 10 8 -2
12 1 22 7 22 3 0 2 -4 -1 -10z"/>
<path d="M1080 2400 c-13 -9 -13 -10 0 -10 9 -1 6 -5 -7 -10 -18 -7 -22 -16
-19 -39 2 -17 -1 -32 -5 -33 -5 -2 2 -16 15 -32 26 -33 83 -45 93 -20 3 8 9
11 14 8 5 -3 6 3 2 12 -4 12 -3 15 6 10 10 -6 11 3 7 40 -2 27 -5 52 -5 57 -1
4 -10 7 -22 7 -11 0 -17 5 -14 10 8 13 -45 13 -65 0z m87 -33 c10 -16 11 -67
1 -61 -4 3 -8 -4 -8 -15 0 -12 -7 -21 -15 -21 -8 0 -15 -5 -15 -11 0 -8 -6 -7
-17 2 -15 12 -16 12 -8 -1 5 -8 -4 -3 -18 11 -24 23 -26 30 -17 55 24 67 30
73 61 62 16 -5 32 -15 36 -21z"/>
<path d="M1410 2400 c0 -5 -7 -7 -15 -4 -8 4 -15 1 -15 -6 0 -6 4 -9 9 -5 5 3
13 0 17 -7 5 -8 10 -6 15 8 7 17 8 17 8 -3 1 -13 -2 -23 -6 -23 -5 0 -9 -11
-9 -25 -1 -14 2 -22 7 -19 5 3 9 0 9 -5 0 -6 -6 -11 -12 -11 -9 0 -8 -4 2 -10
8 -5 10 -10 5 -10 -6 0 -11 -8 -11 -18 0 -10 6 -19 12 -19 7 0 13 7 13 16 0 9
2 25 4 36 2 11 0 25 -5 32 -6 8 -6 18 0 29 12 22 4 54 -14 54 -8 0 -14 -4 -14
-10z"/>
<path d="M3058 2403 c-10 -2 -19 -9 -19 -14 -1 -5 -2 -13 -3 -18 0 -5 -4 -13
-8 -17 -11 -11 -10 -44 1 -44 16 0 22 18 9 23 -10 4 -10 6 0 6 7 1 10 6 7 11
-3 6 -2 10 4 10 6 0 8 6 5 14 -3 9 4 15 25 18 25 4 32 -1 49 -31 18 -32 19
-39 6 -63 -8 -15 -23 -30 -34 -33 -23 -7 -50 10 -50 31 0 8 -6 11 -15 8 -11
-5 -13 -10 -5 -19 5 -6 6 -16 2 -20 -4 -5 -2 -5 5 -2 6 4 13 2 15 -4 2 -5 17
-12 33 -14 35 -3 72 23 67 48 -2 9 1 17 7 17 5 0 8 9 6 21 -9 45 -17 60 -30
55 -9 -3 -12 0 -8 10 4 10 -2 14 -23 13 -16 -1 -37 -3 -46 -6z m90 -48 c-3 -3
-9 2 -12 12 -6 14 -5 15 5 6 7 -7 10 -15 7 -18z"/>
<path d="M3353 2400 c-13 -5 -23 -12 -23 -16 0 -3 7 -4 15 -1 21 9 26 -6 27
-78 1 -62 8 -79 24 -53 4 7 3 8 -4 4 -7 -4 -12 -2 -12 3 0 6 4 11 8 11 10 0 9
30 -2 48 -4 7 -2 12 6 12 9 0 9 3 -2 10 -8 5 -10 10 -5 10 6 0 11 14 10 30 0
32 -6 34 -42 20z m31 -16 c3 -8 2 -12 -4 -9 -6 3 -10 10 -10 16 0 14 7 11 14
-7z"/>
<path d="M3622 2393 c-7 -10 -10 -12 -7 -5 3 6 2 12 -3 12 -6 0 -12 -7 -16
-15 -3 -10 1 -15 13 -15 11 0 21 5 23 12 7 21 36 16 49 -8 7 -13 17 -24 23
-24 6 0 4 -5 -4 -10 -10 -7 -11 -10 -2 -10 10 0 9 -6 -2 -28 -21 -41 -37 -51
-61 -38 -22 13 -28 28 -28 69 0 16 -5 27 -13 27 -15 0 -15 -21 1 -32 6 -5 6
-8 -2 -8 -16 0 -8 -40 12 -59 17 -17 75 -24 75 -9 0 5 5 6 10 3 9 -6 29 31 35
65 4 27 -17 72 -31 66 -8 -3 -11 0 -7 10 8 21 -49 18 -65 -3z"/>
<path d="M826 2065 c-7 -18 5 -20 23 -2 10 10 11 8 5 -7 -6 -15 -4 -17 6 -11
10 6 11 4 4 -6 -12 -19 -12 -62 1 -71 7 -5 6 -8 -1 -8 -13 0 -11 -43 2 -47 6
-2 9 14 8 37 -1 22 2 43 8 46 5 3 1 13 -9 21 -10 8 -12 12 -5 8 9 -5 12 2 10
22 -1 22 -7 29 -24 31 -12 1 -25 -5 -28 -13z"/>
<path d="M1110 2068 c0 -5 -4 -6 -10 -3 -5 3 -10 1 -10 -4 0 -14 6 -14 33 0
16 8 19 8 12 0 -7 -6 -8 -35 -5 -71 3 -33 2 -60 -3 -60 -4 0 -5 -5 -2 -10 13
-21 27 3 22 36 -3 19 -2 34 2 34 5 0 6 11 3 25 -2 14 -9 25 -15 25 -6 0 -2 7
9 15 21 16 20 16 -13 20 -13 1 -23 -2 -23 -7z"/>
<path d="M3070 2070 c-9 -5 -9 -9 -1 -14 6 -4 11 -1 11 6 0 8 5 6 11 -5 5 -9
7 -22 3 -29 -4 -6 -3 -8 4 -4 5 3 13 0 15 -6 3 -8 6 -6 6 5 1 24 -3 32 -14 29
-5 -1 -2 4 8 12 16 13 16 14 -7 14 -13 0 -29 -4 -36 -8z"/>
<path d="M3307 2044 c-12 -25 -13 -34 -4 -34 8 0 8 -3 -2 -9 -19 -12 -6 -58
22 -72 29 -16 67 -20 67 -6 0 5 3 7 7 4 3 -4 12 1 19 11 17 22 18 35 2 27 -7
-4 -5 0 5 8 19 16 14 42 -10 51 -12 5 -13 3 -5 -7 8 -10 7 -22 -6 -48 -20 -39
-47 -49 -68 -22 -9 10 -12 11 -8 3 4 -9 3 -12 -2 -7 -14 14 -10 80 6 98 20 22
60 31 60 14 0 -13 29 -29 38 -21 11 12 -35 41 -68 43 -33 1 -39 -3 -53 -33z"/>
<path d="M3638 2073 c-20 -5 -25 -25 -5 -22 6 1 17 1 22 0 11 -1 12 -51 1 -69
-4 -7 -3 -12 3 -12 5 0 8 -13 6 -30 -2 -16 0 -30 5 -30 11 0 19 60 8 66 -5 3
-4 12 3 20 9 11 9 14 -1 14 -8 0 -9 4 -4 13 25 34 4 62 -38 50z"/>
<path d="M840 1749 c0 -4 -6 -6 -14 -3 -13 5 -36 -22 -49 -58 -5 -14 -1 -18
16 -18 14 0 18 3 10 8 -9 6 -6 15 13 35 14 15 29 25 35 22 5 -4 9 0 9 7 0 21
31 -44 35 -73 2 -17 -5 -36 -21 -54 -13 -15 -24 -23 -24 -17 0 7 -3 11 -7 10
-5 -1 -19 2 -32 6 -17 6 -20 10 -11 16 12 8 6 30 -8 30 -16 0 -10 -39 7 -55
22 -19 71 -30 71 -15 0 6 4 9 9 5 16 -9 40 35 36 66 -3 17 0 27 5 24 6 -4 1
10 -11 29 -12 20 -24 36 -27 37 -4 0 -15 2 -24 4 -10 2 -18 -1 -18 -6z"/>
<path d="M3624 1748 c-29 -14 -43 -46 -37 -92 7 -69 63 -95 107 -51 15 14 27
30 27 35 1 6 2 16 3 23 1 6 0 17 -3 22 -3 6 -6 16 -7 23 -3 17 -25 44 -32 38
-2 -3 -12 -2 -21 3 -9 5 -25 4 -37 -1z m20 -9 c-4 -7 -1 -10 7 -7 7 2 20 -3
29 -11 8 -9 12 -12 8 -7 -5 6 -8 15 -8 21 1 16 24 -28 25 -47 1 -10 -2 -18 -7
-18 -4 0 -8 -5 -8 -11 0 -5 5 -7 10 -4 6 3 10 1 10 -4 0 -6 -5 -11 -11 -11 -5
0 -8 -3 -6 -7 2 -5 -4 -16 -15 -25 -10 -10 -18 -13 -18 -7 0 8 -4 8 -14 0 -11
-10 -16 -8 -21 9 -3 11 -10 18 -14 16 -4 -3 -6 11 -5 30 2 19 -1 34 -7 34 -6
0 2 13 18 30 30 31 39 37 27 19z"/>
<path d="M1110 1739 c0 -5 -4 -7 -10 -4 -5 3 -10 1 -10 -4 0 -13 3 -13 24 -5
18 7 22 24 6 24 -5 0 -10 -5 -10 -11z"/>
<path d="M1133 1732 c-7 -12 -8 -24 -1 -35 6 -12 5 -17 -4 -17 -9 0 -9 -3 2
-10 12 -8 12 -10 1 -10 -11 0 -11 -3 -1 -15 10 -12 10 -15 0 -15 -9 0 -9 -4 1
-17 9 -11 10 -14 2 -9 -9 5 -11 2 -7 -8 13 -33 24 -2 22 63 -1 37 2 73 6 79 4
7 3 12 -1 12 -5 0 -13 -8 -20 -18z"/>
<path d="M3342 1743 c-13 -5 -7 -23 9 -23 6 0 8 4 4 9 -3 6 6 8 21 5 16 -3 23
-1 19 6 -6 10 -31 12 -53 3z"/>
<path d="M3371 1705 c2 -17 0 -36 -4 -43 -5 -6 -4 -12 2 -12 6 0 7 -7 4 -17
-4 -11 -3 -14 5 -9 18 11 14 -5 -4 -19 -16 -11 -16 -12 0 -18 18 -7 20 1 16
78 -1 28 -6 55 -12 60 -6 7 -9 0 -7 -20z"/>
<path d="M844 1408 c-3 -5 -9 -6 -13 -4 -4 3 -8 -1 -8 -9 0 -17 14 -20 19 -5
2 6 8 6 18 0 13 -9 13 -11 0 -19 -16 -11 -8 -27 9 -17 15 10 10 63 -6 63 -8 0
-16 -4 -19 -9z"/>
<path d="M3343 1406 c2 -6 12 -11 21 -11 45 0 61 -78 23 -113 -21 -20 -25 -20
-44 -7 -11 8 -24 11 -28 7 -5 -4 -6 0 -2 9 3 9 0 22 -6 29 -7 8 -7 10 -1 7 6
-4 10 3 8 16 -1 12 -3 28 -3 36 -2 25 -13 4 -18 -32 -4 -33 18 -96 35 -98 4 0
18 -2 31 -3 32 -4 75 38 68 65 -3 11 0 19 6 19 7 0 5 5 -3 10 -9 6 -10 10 -3
10 8 0 7 9 -3 30 -17 33 -26 40 -18 13 5 -15 3 -15 -10 1 -17 21 -59 30 -53
12z m77 -109 c0 -2 -12 -14 -27 -28 l-28 -24 24 28 c23 25 31 32 31 24z m-75
-37 c3 -6 -1 -7 -9 -4 -18 7 -21 14 -7 14 6 0 13 -4 16 -10z"/>
<path d="M3667 1403 c5 -15 3 -16 -8 -5 -17 16 -29 15 -29 -3 0 -9 6 -12 16
-8 14 5 16 1 12 -20 -3 -17 -1 -24 5 -20 7 4 8 -1 3 -13 -14 -33 -12 -79 3
-79 8 0 15 8 17 18 1 9 -2 15 -7 11 -10 -6 -12 29 -2 40 10 10 11 46 1 40 -4
-3 -8 -1 -8 5 0 5 4 12 10 16 11 7 2 35 -11 35 -4 0 -6 -8 -2 -17z"/>
<path d="M3320 1389 c0 -11 4 -18 10 -14 5 3 7 12 3 20 -7 21 -13 19 -13 -6z"/>
<path d="M860 1340 c-13 -8 -12 -10 3 -10 9 0 17 5 17 10 0 12 -1 12 -20 0z"/>
<path d="M854 1308 c-4 -7 -3 -8 4 -4 7 4 12 2 12 -3 0 -6 -4 -11 -10 -11 -5
0 -10 -5 -10 -11 0 -18 23 -4 31 19 6 16 5 22 -6 22 -7 0 -17 -5 -21 -12z"/>
<path d="M860 1260 c-13 -8 -12 -10 3 -10 9 0 17 5 17 10 0 12 -1 12 -20 0z"/>
<path d="M3833 805 c0 -8 4 -15 9 -15 4 0 8 4 8 9 0 6 -4 12 -8 15 -5 3 -9 -1
-9 -9z"/>
<path d="M3861 817 c2 -1 13 -9 24 -17 19 -14 19 -14 6 3 -7 9 -18 17 -24 17
-6 0 -8 -1 -6 -3z"/>
<path d="M554 802 c4 -3 14 -7 22 -8 9 -1 13 0 10 4 -4 3 -14 7 -22 8 -9 1
-13 0 -10 -4z"/>
<path d="M720 795 c-14 -8 -20 -14 -14 -15 5 0 19 7 30 15 24 18 16 19 -16 0z"/>
<path d="M819 808 c-7 -25 -4 -34 13 -34 17 0 17 2 4 12 -9 6 -13 14 -9 17 3
4 3 7 0 7 -4 0 -7 -1 -8 -2z"/>
<path d="M933 794 c-3 -8 -2 -19 3 -24 5 -5 9 1 9 16 0 28 -3 30 -12 8z"/>
<path d="M1080 806 c0 -2 7 -7 16 -10 8 -3 12 -2 9 4 -6 10 -25 14 -25 6z"/>
<path d="M1133 803 c4 -3 -1 -12 -11 -20 -15 -13 -15 -13 6 -3 19 9 23 30 5
30 -4 0 -3 -3 0 -7z"/>
<path d="M1190 800 c0 -5 5 -10 11 -10 5 0 7 5 4 10 -3 6 -8 10 -11 10 -2 0
-4 -4 -4 -10z"/>
<path d="M1230 800 c-13 -8 -12 -10 3 -10 9 0 17 5 17 10 0 12 -1 12 -20 0z"/>
<path d="M1430 801 c0 -5 7 -15 17 -22 15 -13 15 -12 4 9 -12 23 -21 28 -21
13z"/>
<path d="M1575 801 c-3 -5 0 -13 6 -17 7 -4 9 -3 5 4 -3 5 0 13 6 15 9 4 10 6
1 6 -6 1 -14 -3 -18 -8z"/>
<path d="M1614 802 c3 -5 0 -13 -6 -15 -9 -4 -10 -6 -1 -6 17 -1 25 16 12 25
-7 4 -9 3 -5 -4z"/>
<path d="M1646 785 c-9 -14 -13 -25 -8 -25 5 0 14 11 20 25 6 14 10 25 8 25
-2 0 -11 -11 -20 -25z"/>
<path d="M1752 790 c-18 -29 -15 -38 4 -12 9 13 14 25 12 27 -2 2 -9 -5 -16
-15z"/>
<path d="M1910 801 c0 -5 7 -15 17 -22 15 -13 15 -12 4 9 -12 23 -21 28 -21
13z"/>
<path d="M2094 802 c3 -5 0 -13 -6 -15 -9 -4 -10 -6 -1 -6 17 -1 25 16 12 25
-7 4 -9 3 -5 -4z"/>
<path d="M2126 785 c-9 -14 -13 -25 -8 -25 5 0 14 11 20 25 6 14 10 25 8 25
-2 0 -11 -11 -20 -25z"/>
<path d="M2255 801 c-6 -11 13 -26 22 -17 4 3 1 6 -6 6 -7 0 -9 5 -6 10 3 6 4
10 1 10 -3 0 -7 -4 -11 -9z"/>
<path d="M2477 790 c10 -11 19 -20 21 -20 1 0 -2 9 -8 20 -6 11 -15 20 -20 20
-6 0 -2 -9 7 -20z"/>
<path d="M2568 803 c6 -2 9 -10 6 -15 -4 -7 -2 -8 5 -4 13 9 5 26 -12 25 -9 0
-8 -2 1 -6z"/>
<path d="M2606 804 c7 -3 10 -15 8 -27 -4 -21 -4 -21 5 -2 10 23 5 35 -12 34
-9 0 -9 -2 -1 -5z"/>
<path d="M2735 800 c6 -10 4 -12 -8 -7 -10 3 -17 2 -17 -3 0 -13 27 -13 35 -1
3 5 0 13 -6 17 -8 5 -9 3 -4 -6z"/>
<path d="M2790 800 c0 -5 5 -10 11 -10 5 0 7 5 4 10 -3 6 -8 10 -11 10 -2 0
-4 -4 -4 -10z"/>
<path d="M2830 800 c-13 -8 -12 -10 3 -10 9 0 17 5 17 10 0 12 -1 12 -20 0z"/>
<path d="M2993 786 c0 -14 6 -27 15 -31 11 -4 12 -2 5 7 -6 7 -9 21 -8 31 2 9
0 17 -5 17 -4 0 -7 -11 -7 -24z"/>
<path d="M3100 806 c0 -2 7 -7 16 -10 8 -3 12 -2 9 4 -6 10 -25 14 -25 6z"/>
<path d="M3215 800 c6 -10 4 -12 -8 -7 -8 3 -18 0 -20 -7 -4 -10 1 -12 14 -9
25 7 33 20 18 29 -8 5 -9 3 -4 -6z"/>
<path d="M3334 802 c3 -5 0 -13 -6 -15 -9 -4 -10 -6 -1 -6 17 -1 25 16 12 25
-7 4 -9 3 -5 -4z"/>
<path d="M3453 803 c4 -3 -1 -12 -11 -20 -15 -13 -15 -13 6 -3 19 9 23 30 5
30 -4 0 -3 -3 0 -7z"/>
<path d="M3536 802 c-2 -4 0 -14 6 -22 8 -12 9 -12 5 2 -3 9 -1 19 6 22 9 3 9
5 0 5 -6 1 -14 -3 -17 -7z"/>
<path d="M3575 800 c-3 -6 1 -7 9 -4 18 7 21 14 7 14 -6 0 -13 -4 -16 -10z"/>
<path d="M3695 801 c6 -11 4 -13 -8 -8 -10 3 -17 3 -17 -2 0 -5 9 -11 19 -14
19 -5 23 15 6 30 -4 5 -5 2 0 -6z"/>
<path d="M1260 793 c0 -6 8 -17 18 -24 16 -13 16 -13 2 6 -8 11 -16 22 -17 24
-2 2 -3 0 -3 -6z"/>
<path d="M1675 790 c-3 -6 1 -7 9 -4 18 7 21 14 7 14 -6 0 -13 -4 -16 -10z"/>
<path d="M1887 787 c-3 -8 1 -14 8 -14 7 0 11 6 8 14 -3 7 -6 13 -8 13 -2 0
-5 -6 -8 -13z"/>
<path d="M2515 790 c3 -5 8 -10 11 -10 2 0 4 5 4 10 0 6 -5 10 -11 10 -5 0 -7
-4 -4 -10z"/>
<path d="M2860 794 c0 -5 7 -18 15 -28 8 -11 15 -16 15 -10 0 5 -7 18 -15 28
-8 11 -15 16 -15 10z"/>
<path d="M3150 789 c0 -5 5 -7 10 -4 6 3 10 8 10 11 0 2 -4 4 -10 4 -5 0 -10
-5 -10 -11z"/>
<path d="M3626 784 c-5 -14 -4 -15 9 -4 17 14 19 20 6 20 -5 0 -12 -7 -15 -16z"/>
<path d="M3790 790 c8 -5 20 -10 25 -10 6 0 3 5 -5 10 -8 5 -19 10 -25 10 -5
0 -3 -5 5 -10z"/>
<path d="M900 780 c-9 -6 -10 -10 -3 -10 6 0 15 5 18 10 8 12 4 12 -15 0z"/>
<path d="M970 786 c0 -2 7 -7 16 -10 8 -3 12 -2 9 4 -6 10 -25 14 -25 6z"/>
<path d="M1010 775 c0 -8 2 -15 4 -15 2 0 6 7 10 15 3 8 1 15 -4 15 -6 0 -10
-7 -10 -15z"/>
<path d="M1086 777 c3 -10 9 -15 12 -12 3 3 0 11 -7 18 -10 9 -11 8 -5 -6z"/>
<path d="M1155 779 c-4 -6 -5 -12 -2 -15 2 -3 7 2 10 11 7 17 1 20 -8 4z"/>
<path d="M1300 780 c0 -5 5 -10 11 -10 5 0 7 5 4 10 -3 6 -8 10 -11 10 -2 0
-4 -4 -4 -10z"/>
<path d="M1332 786 c2 -1 10 -7 19 -14 13 -10 18 -10 22 0 3 8 -5 14 -20 14
-13 1 -23 1 -21 0z"/>
<path d="M1406 782 c-3 -5 1 -9 9 -9 8 0 12 4 9 9 -3 4 -7 8 -9 8 -2 0 -6 -4
-9 -8z"/>
<path d="M1535 780 c3 -5 8 -10 11 -10 2 0 4 5 4 10 0 6 -5 10 -11 10 -5 0 -7
-4 -4 -10z"/>
<path d="M1710 785 c0 -5 5 -17 10 -25 5 -8 10 -10 10 -5 0 6 -5 17 -10 25 -5
8 -10 11 -10 5z"/>
<path d="M1780 781 c0 -9 30 -24 36 -18 2 1 -6 8 -16 15 -11 7 -20 8 -20 3z"/>
<path d="M1812 786 c2 -1 10 -7 19 -14 13 -10 18 -10 22 0 3 8 -5 14 -20 14
-13 1 -23 1 -21 0z"/>
<path d="M2015 780 c3 -5 8 -10 11 -10 2 0 4 5 4 10 0 6 -5 10 -11 10 -5 0 -7
-4 -4 -10z"/>
<path d="M2045 780 c-3 -6 1 -7 9 -4 18 7 21 14 7 14 -6 0 -13 -4 -16 -10z"/>
<path d="M2190 785 c0 -5 5 -17 10 -25 5 -8 10 -10 10 -5 0 6 -5 17 -10 25 -5
8 -10 11 -10 5z"/>
<path d="M2225 779 c-4 -6 -5 -12 -2 -15 2 -3 7 2 10 11 7 17 1 20 -8 4z"/>
<path d="M2310 780 c0 -5 5 -10 11 -10 5 0 7 5 4 10 -3 6 -8 10 -11 10 -2 0
-4 -4 -4 -10z"/>
<path d="M2346 782 c-2 -4 4 -8 14 -8 10 0 16 4 14 8 -3 4 -9 8 -14 8 -5 0
-11 -4 -14 -8z"/>
<path d="M2415 780 c3 -5 8 -10 11 -10 2 0 4 5 4 10 0 6 -5 10 -11 10 -5 0 -7
-4 -4 -10z"/>
<path d="M2445 780 c-3 -6 1 -7 9 -4 18 7 21 14 7 14 -6 0 -13 -4 -16 -10z"/>
<path d="M2665 779 c-4 -6 -5 -12 -2 -15 2 -3 7 2 10 11 7 17 1 20 -8 4z"/>
<path d="M2761 776 c-9 -10 -8 -15 3 -19 11 -4 13 -1 9 10 -5 12 -3 14 7 8 9
-5 11 -4 6 3 -9 15 -11 15 -25 -2z"/>
<path d="M2900 780 c0 -5 5 -10 11 -10 5 0 7 5 4 10 -3 6 -8 10 -11 10 -2 0
-4 -4 -4 -10z"/>
<path d="M2930 780 c0 -5 5 -10 10 -10 6 0 10 5 10 10 0 6 -4 10 -10 10 -5 0
-10 -4 -10 -10z"/>
<path d="M3055 780 c3 -5 8 -10 11 -10 2 0 4 5 4 10 0 6 -5 10 -11 10 -5 0 -7
-4 -4 -10z"/>
<path d="M3085 780 c-3 -6 1 -7 9 -4 18 7 21 14 7 14 -6 0 -13 -4 -16 -10z"/>
<path d="M3277 783 c-13 -12 -7 -23 11 -22 10 0 12 3 4 6 -6 2 -10 9 -6 14 6
10 0 12 -9 2z"/>
<path d="M3366 777 c3 -10 9 -15 12 -12 3 3 0 11 -7 18 -10 9 -11 8 -5 -6z"/>
<path d="M3485 779 c-4 -6 -4 -13 -1 -16 3 -4 6 -1 6 6 0 7 5 9 12 5 7 -4 8
-3 4 4 -9 15 -13 15 -21 1z"/>
<path d="M3586 782 c-3 -5 1 -9 9 -9 8 0 12 4 9 9 -3 4 -7 8 -9 8 -2 0 -6 -4
-9 -8z"/>
<path d="M1496 771 c-4 -5 -1 -13 5 -17 8 -4 9 -3 5 4 -4 7 -3 12 3 12 5 0 12
-5 14 -10 3 -6 4 -5 3 2 -3 16 -23 22 -30 9z"/>
<path d="M1976 771 c-4 -5 -1 -13 5 -17 8 -4 9 -3 5 4 -4 7 -3 12 3 12 5 0 12
-5 14 -10 3 -6 4 -5 3 2 -3 16 -23 22 -30 9z"/>
<path d="M2394 772 c3 -5 0 -13 -6 -15 -8 -3 -6 -6 5 -6 19 -1 23 14 5 25 -6
4 -8 3 -4 -4z"/>
<path d="M2535 771 c-3 -5 0 -13 6 -17 7 -4 9 -3 5 4 -3 5 0 13 6 15 9 4 10 6
1 6 -6 1 -14 -3 -18 -8z"/>
<path d="M2637 773 c-10 -9 -9 -23 1 -23 5 0 9 7 9 15 0 17 -1 18 -10 8z"/>
<path d="M2957 767 c-3 -8 1 -14 8 -14 7 0 11 6 8 14 -3 7 -6 13 -8 13 -2 0
-5 -6 -8 -13z"/>
<path d="M3033 767 c0 -7 9 -14 20 -14 11 -1 18 -1 16 0 -2 2 -11 8 -20 15
-12 9 -16 9 -16 -1z"/>
<path d="M3128 773 c6 -2 9 -10 6 -15 -4 -7 -2 -8 5 -4 13 9 5 26 -12 25 -9 0
-8 -2 1 -6z"/>
<path d="M1253 755 c0 -8 4 -12 9 -9 5 3 6 10 3 15 -9 13 -12 11 -12 -6z"/>
<path d="M1325 759 c-4 -6 -5 -12 -2 -15 2 -3 7 2 10 11 7 17 1 20 -8 4z"/>
<path d="M1470 761 c0 -6 4 -13 10 -16 6 -3 7 1 4 9 -7 18 -14 21 -14 7z"/>
<path d="M1579 768 c-6 -22 -5 -39 3 -45 6 -3 8 -1 4 5 -3 5 0 13 6 15 10 4
10 6 0 6 -7 1 -10 6 -7 11 3 6 4 10 1 10 -3 0 -6 -1 -7 -2z"/>
<path d="M1953 744 c0 -17 2 -22 7 -13 5 6 6 18 3 26 -8 19 -10 16 -10 -13z"/>
<path d="M2056 758 c-6 -18 -4 -49 2 -43 6 6 10 55 5 55 -2 0 -5 -6 -7 -12z"/>
<path d="M2457 763 c-3 -5 -1 -17 4 -28 4 -11 8 -14 8 -7 1 7 7 10 14 7 6 -4
4 0 -5 8 -10 8 -15 17 -11 20 3 4 4 7 0 7 -3 0 -8 -3 -10 -7z"/>
<path d="M2510 761 c0 -10 29 -36 34 -30 1 2 -6 12 -16 22 -10 9 -18 13 -18 8z"/>
<path d="M2573 763 c4 -6 2 -13 -5 -15 -8 -3 -6 -6 4 -10 17 -7 19 15 3 29 -4
4 -5 3 -2 -4z"/>
<path d="M2671 747 c-13 -21 -12 -21 5 -5 10 10 16 20 13 22 -3 3 -11 -5 -18
-17z"/>
<path d="M2850 760 c0 -5 5 -10 11 -10 5 0 7 5 4 10 -3 6 -8 10 -11 10 -2 0
-4 -4 -4 -10z"/>
<path d="M3096 762 c-3 -5 1 -9 9 -9 8 0 12 4 9 9 -3 4 -7 8 -9 8 -2 0 -6 -4
-9 -8z"/>
<path d="M3215 760 c3 -5 8 -10 11 -10 2 0 4 5 4 10 0 6 -5 10 -11 10 -5 0 -7
-4 -4 -10z"/>
<path d="M3316 758 c3 -5 10 -6 15 -3 13 9 11 12 -6 12 -8 0 -12 -4 -9 -9z"/>
<path d="M1395 749 c-11 -16 -1 -19 13 -3 7 8 8 14 3 14 -5 0 -13 -5 -16 -11z"/>
<path d="M1875 750 c-3 -6 1 -7 9 -4 18 7 21 14 7 14 -6 0 -13 -4 -16 -10z"/>
<path d="M1426 742 c-3 -5 1 -9 9 -9 8 0 12 4 9 9 -3 4 -7 8 -9 8 -2 0 -6 -4
-9 -8z"/>
<path d="M1610 739 c0 -5 4 -8 9 -4 5 3 12 1 16 -5 3 -5 11 -10 18 -10 6 0 2
7 -9 15 -23 17 -34 19 -34 4z"/>
<path d="M1670 739 c0 -5 5 -7 10 -4 6 3 10 8 10 11 0 2 -4 4 -10 4 -5 0 -10
-5 -10 -11z"/>
<path d="M1706 737 c3 -10 9 -15 12 -12 3 3 0 11 -7 18 -10 9 -11 8 -5 -6z"/>
<path d="M1766 737 c3 -10 9 -15 12 -12 3 3 0 11 -7 18 -10 9 -11 8 -5 -6z"/>
<path d="M1816 733 c-6 -14 -5 -15 5 -6 7 7 10 15 7 18 -3 3 -9 -2 -12 -12z"/>
<path d="M1913 735 c0 -8 4 -15 9 -15 4 0 8 4 8 9 0 6 -4 12 -8 15 -5 3 -9 -1
-9 -9z"/>
<path d="M2076 738 c3 -4 11 -5 19 -1 21 7 19 12 -4 10 -11 0 -18 -5 -15 -9z"/>
<path d="M2176 733 c-6 -14 -5 -15 5 -6 7 7 10 15 7 18 -3 3 -9 -2 -12 -12z"/>
<path d="M2255 739 c-4 -6 -5 -12 -2 -15 2 -3 7 2 10 11 7 17 1 20 -8 4z"/>
<path d="M2310 729 c0 -5 5 -7 10 -4 6 3 10 8 10 11 0 2 -4 4 -10 4 -5 0 -10
-5 -10 -11z"/>
<path d="M1868 723 c6 -2 18 -2 25 0 6 3 1 5 -13 5 -14 0 -19 -2 -12 -5z"/>
<path d="M2108 723 c6 -2 18 -2 25 0 6 3 1 5 -13 5 -14 0 -19 -2 -12 -5z"/>
</g>
</svg>
